# xmcd
#
# Track frame offsets:
#	150
#	15208
#	31665
#	49564
#	72618
#	92629
#	108827
#	129691
#	145277
#	163235
#	181953
#	195783
#
# Disc length: 2859 seconds
# Revision: 0
# Processed by: cddbd v1.5.2PL0 Copyright (c) Steve Scherf et al.
# Submitted via: dBpowerAMP V12.0
#
DISCID=950b290c
DTITLE=Jayne Nelsen - No Regrets
DYEAR=2007
DGENRE=Country
TTITLE0=Leave The Light On
TTITLE1=Help Me Say No
TTITLE2=No Regrets
TTITLE3=What It Really Is
TTITLE4=How I Wanna Love You
TTITLE5=Real Bad Mood
TTITLE6=On That Day
TTITLE7=I Surrender
TTITLE8=Take Your Time
TTITLE9=Wait For You
TTITLE10=Stay
TTITLE11=Are You Watching Me Now
EXTD=
EXTT0=
EXTT1=
EXTT2=
EXTT3=
EXTT4=
EXTT5=
EXTT6=
EXTT7=
EXTT8=
EXTT9=
EXTT10=
EXTT11=
PLAYORDER=
